<mxfile host="app.diagrams.net" agent="Mozilla/5.0 (Windows NT 10.0; Win64; x64) AppleWebKit/537.36 (KHTML, like Gecko) Chrome/133.0.0.0 Safari/537.36 Edg/133.0.0.0" version="26.0.2">
  <diagram name="Seite-1" id="Oq2LHYInmnUWfj7qWebU">
    <mxGraphModel dx="1188" dy="651" grid="1" gridSize="10" guides="1" tooltips="1" connect="1" arrows="1" fold="1" page="1" pageScale="1" pageWidth="827" pageHeight="1169" math="0" shadow="0">
      <root>
        <mxCell id="0" />
        <mxCell id="1" parent="0" />
        <mxCell id="4RtlH1HeTIn5vclw-f7M-12" style="edgeStyle=orthogonalEdgeStyle;rounded=0;orthogonalLoop=1;jettySize=auto;html=1;exitX=1;exitY=0.25;exitDx=0;exitDy=0;startArrow=classic;startFill=1;strokeColor=#B3B3B3;" edge="1" parent="1" source="4RtlH1HeTIn5vclw-f7M-9" target="4RtlH1HeTIn5vclw-f7M-6">
          <mxGeometry relative="1" as="geometry" />
        </mxCell>
        <mxCell id="4RtlH1HeTIn5vclw-f7M-15" style="edgeStyle=orthogonalEdgeStyle;rounded=0;orthogonalLoop=1;jettySize=auto;html=1;entryX=0;entryY=0.5;entryDx=0;entryDy=0;exitX=1.002;exitY=0.797;exitDx=0;exitDy=0;startArrow=classic;startFill=1;strokeColor=#B3B3B3;exitPerimeter=0;" edge="1" parent="1" source="4RtlH1HeTIn5vclw-f7M-9" target="4RtlH1HeTIn5vclw-f7M-13">
          <mxGeometry relative="1" as="geometry" />
        </mxCell>
        <mxCell id="4RtlH1HeTIn5vclw-f7M-9" value="" style="rounded=1;whiteSpace=wrap;html=1;" vertex="1" parent="1">
          <mxGeometry x="100" y="380" width="160" height="330" as="geometry" />
        </mxCell>
        <mxCell id="4RtlH1HeTIn5vclw-f7M-18" style="edgeStyle=orthogonalEdgeStyle;rounded=0;orthogonalLoop=1;jettySize=auto;html=1;entryX=1;entryY=0.5;entryDx=0;entryDy=0;exitX=0;exitY=0.75;exitDx=0;exitDy=0;startArrow=classic;startFill=1;strokeColor=#B3B3B3;" edge="1" parent="1" source="4RtlH1HeTIn5vclw-f7M-4" target="4RtlH1HeTIn5vclw-f7M-13">
          <mxGeometry relative="1" as="geometry" />
        </mxCell>
        <mxCell id="4RtlH1HeTIn5vclw-f7M-19" style="edgeStyle=orthogonalEdgeStyle;rounded=0;orthogonalLoop=1;jettySize=auto;html=1;entryX=1;entryY=0.5;entryDx=0;entryDy=0;exitX=0.5;exitY=0;exitDx=0;exitDy=0;startArrow=classic;startFill=1;strokeColor=#B3B3B3;" edge="1" parent="1" source="4RtlH1HeTIn5vclw-f7M-4" target="4RtlH1HeTIn5vclw-f7M-5">
          <mxGeometry relative="1" as="geometry" />
        </mxCell>
        <mxCell id="4RtlH1HeTIn5vclw-f7M-4" value="&lt;font style=&quot;color: rgb(179, 179, 179);&quot;&gt;Handwerker-&lt;/font&gt;&lt;div&gt;&lt;font style=&quot;color: rgb(179, 179, 179);&quot;&gt;Software&lt;/font&gt;&lt;/div&gt;" style="rounded=1;whiteSpace=wrap;html=1;strokeColor=#B3B3B3;" vertex="1" parent="1">
          <mxGeometry x="640" y="519" width="120" height="60" as="geometry" />
        </mxCell>
        <mxCell id="4RtlH1HeTIn5vclw-f7M-5" value="&lt;b&gt;&lt;font style=&quot;color: rgb(255, 128, 0);&quot;&gt;DCM&lt;/font&gt;&lt;/b&gt;-IDS-Server&lt;br&gt;(shop)" style="rounded=1;whiteSpace=wrap;html=1;" vertex="1" parent="1">
          <mxGeometry x="360" y="140" width="120" height="100" as="geometry" />
        </mxCell>
        <mxCell id="4RtlH1HeTIn5vclw-f7M-6" value="&lt;font style=&quot;color: rgb(179, 179, 179);&quot;&gt;IDS-Shop&lt;/font&gt;" style="rounded=1;whiteSpace=wrap;html=1;strokeColor=#B3B3B3;" vertex="1" parent="1">
          <mxGeometry x="361" y="433" width="120" height="60" as="geometry" />
        </mxCell>
        <mxCell id="4RtlH1HeTIn5vclw-f7M-10" style="edgeStyle=orthogonalEdgeStyle;rounded=0;orthogonalLoop=1;jettySize=auto;html=1;entryX=0.5;entryY=0;entryDx=0;entryDy=0;startArrow=classic;startFill=1;" edge="1" parent="1" source="4RtlH1HeTIn5vclw-f7M-7" target="4RtlH1HeTIn5vclw-f7M-8">
          <mxGeometry relative="1" as="geometry" />
        </mxCell>
        <mxCell id="4RtlH1HeTIn5vclw-f7M-7" value="Winforms" style="rounded=1;whiteSpace=wrap;html=1;" vertex="1" parent="1">
          <mxGeometry x="120" y="400" width="120" height="100" as="geometry" />
        </mxCell>
        <mxCell id="4RtlH1HeTIn5vclw-f7M-8" value="Http-Server" style="rounded=1;whiteSpace=wrap;html=1;" vertex="1" parent="1">
          <mxGeometry x="120" y="553" width="120" height="60" as="geometry" />
        </mxCell>
        <mxCell id="4RtlH1HeTIn5vclw-f7M-11" value="&lt;b&gt;&lt;font style=&quot;color: rgb(255, 128, 0);&quot;&gt;DCM&lt;/font&gt;&lt;/b&gt;-Handwerker-Software" style="text;html=1;align=center;verticalAlign=middle;whiteSpace=wrap;rounded=0;" vertex="1" parent="1">
          <mxGeometry x="150" y="660" width="60" height="30" as="geometry" />
        </mxCell>
        <mxCell id="4RtlH1HeTIn5vclw-f7M-13" value="&lt;font style=&quot;color: rgb(179, 179, 179);&quot;&gt;IDS-Shop&lt;/font&gt;" style="rounded=1;whiteSpace=wrap;html=1;strokeColor=#B3B3B3;" vertex="1" parent="1">
          <mxGeometry x="361" y="613" width="120" height="60" as="geometry" />
        </mxCell>
        <mxCell id="4RtlH1HeTIn5vclw-f7M-17" style="edgeStyle=orthogonalEdgeStyle;rounded=0;orthogonalLoop=1;jettySize=auto;html=1;entryX=1;entryY=0.5;entryDx=0;entryDy=0;exitX=0;exitY=0.25;exitDx=0;exitDy=0;startArrow=classic;startFill=1;strokeColor=#B3B3B3;" edge="1" parent="1" source="4RtlH1HeTIn5vclw-f7M-4" target="4RtlH1HeTIn5vclw-f7M-6">
          <mxGeometry relative="1" as="geometry" />
        </mxCell>
        <mxCell id="4RtlH1HeTIn5vclw-f7M-21" value="" style="shape=image;html=1;verticalAlign=top;verticalLabelPosition=bottom;labelBackgroundColor=#ffffff;imageAspect=0;aspect=fixed;image=https://cdn0.iconfinder.com/data/icons/google-material-design-3-0/48/ic_shopping_basket_48px-128.png" vertex="1" parent="1">
          <mxGeometry x="230" y="310" width="20" height="20" as="geometry" />
        </mxCell>
        <mxCell id="4RtlH1HeTIn5vclw-f7M-22" value="" style="shape=image;html=1;verticalAlign=top;verticalLabelPosition=bottom;labelBackgroundColor=#ffffff;imageAspect=0;aspect=fixed;image=https://cdn0.iconfinder.com/data/icons/elasto-online-store/26/00-ELASTOFONT-STORE-READY_cart-128.png" vertex="1" parent="1">
          <mxGeometry x="368" y="205" width="20" height="20" as="geometry" />
        </mxCell>
        <mxCell id="4RtlH1HeTIn5vclw-f7M-23" value="&lt;font style=&quot;color: rgb(255, 128, 0); font-size: 8px;&quot;&gt;HTTP&lt;/font&gt;" style="text;html=1;align=center;verticalAlign=middle;whiteSpace=wrap;rounded=0;" vertex="1" parent="1">
          <mxGeometry x="50" y="585" width="45" height="30" as="geometry" />
        </mxCell>
        <mxCell id="4RtlH1HeTIn5vclw-f7M-28" style="edgeStyle=orthogonalEdgeStyle;rounded=0;orthogonalLoop=1;jettySize=auto;html=1;exitX=0;exitY=0.5;exitDx=0;exitDy=0;entryX=0;entryY=0.5;entryDx=0;entryDy=0;" edge="1" parent="1" source="4RtlH1HeTIn5vclw-f7M-24" target="4RtlH1HeTIn5vclw-f7M-8">
          <mxGeometry relative="1" as="geometry">
            <mxPoint x="60" y="168" as="sourcePoint" />
            <mxPoint x="40" y="660" as="targetPoint" />
          </mxGeometry>
        </mxCell>
        <mxCell id="4RtlH1HeTIn5vclw-f7M-24" value="ngrok" style="shape=process;whiteSpace=wrap;html=1;backgroundOutline=1;" vertex="1" parent="1">
          <mxGeometry x="60" y="141" width="120" height="36" as="geometry" />
        </mxCell>
        <mxCell id="4RtlH1HeTIn5vclw-f7M-27" style="edgeStyle=orthogonalEdgeStyle;rounded=0;orthogonalLoop=1;jettySize=auto;html=1;entryX=1;entryY=0.5;entryDx=0;entryDy=0;" edge="1" parent="1" source="4RtlH1HeTIn5vclw-f7M-26" target="4RtlH1HeTIn5vclw-f7M-24">
          <mxGeometry relative="1" as="geometry" />
        </mxCell>
        <mxCell id="4RtlH1HeTIn5vclw-f7M-26" value="Send back" style="rounded=1;html=1;shadow=0;dashed=0;whiteSpace=wrap;fontSize=10;fillColor=#E6E6E6;align=center;strokeColor=#B3B3B3;fontColor=#333333;" vertex="1" parent="1">
          <mxGeometry x="368" y="150" width="65.5" height="16.88" as="geometry" />
        </mxCell>
        <mxCell id="4RtlH1HeTIn5vclw-f7M-29" value="&lt;font style=&quot;font-size: 9px;&quot;&gt;Weiterleitung&lt;/font&gt;" style="text;html=1;align=center;verticalAlign=middle;whiteSpace=wrap;rounded=0;" vertex="1" parent="1">
          <mxGeometry x="10" y="210" width="130" height="30" as="geometry" />
        </mxCell>
        <mxCell id="4RtlH1HeTIn5vclw-f7M-31" value="&lt;font style=&quot;font-size: 10px;&quot;&gt;inkl. Hook-Url (ngrok-Url)&lt;/font&gt;" style="text;html=1;align=center;verticalAlign=middle;whiteSpace=wrap;rounded=0;" vertex="1" parent="1">
          <mxGeometry x="250" y="305" width="130" height="30" as="geometry" />
        </mxCell>
        <mxCell id="4RtlH1HeTIn5vclw-f7M-33" value="&lt;font style=&quot;font-size: 8px;&quot;&gt;HTTPS&lt;/font&gt;" style="text;html=1;align=center;verticalAlign=middle;whiteSpace=wrap;rounded=0;" vertex="1" parent="1">
          <mxGeometry x="195" y="120" width="45" height="30" as="geometry" />
        </mxCell>
        <mxCell id="4RtlH1HeTIn5vclw-f7M-34" value="&lt;font style=&quot;font-size: 8px;&quot;&gt;HTTPS&lt;/font&gt;" style="text;html=1;align=center;verticalAlign=middle;whiteSpace=wrap;rounded=0;" vertex="1" parent="1">
          <mxGeometry x="300" y="220" width="45" height="30" as="geometry" />
        </mxCell>
        <mxCell id="4RtlH1HeTIn5vclw-f7M-36" value="&lt;font style=&quot;font-size: 8px; color: rgb(179, 179, 179);&quot;&gt;HTTPS&lt;/font&gt;" style="text;html=1;align=center;verticalAlign=middle;whiteSpace=wrap;rounded=0;" vertex="1" parent="1">
          <mxGeometry x="500" y="195" width="45" height="30" as="geometry" />
        </mxCell>
        <mxCell id="4RtlH1HeTIn5vclw-f7M-43" value="" style="shape=image;html=1;verticalAlign=top;verticalLabelPosition=bottom;labelBackgroundColor=#ffffff;imageAspect=0;aspect=fixed;image=https://cdn0.iconfinder.com/data/icons/google-material-design-3-0/48/ic_shopping_basket_48px-128.png" vertex="1" parent="1">
          <mxGeometry x="52.5" y="310" width="20" height="20" as="geometry" />
        </mxCell>
        <mxCell id="4RtlH1HeTIn5vclw-f7M-45" value="" style="shape=image;html=1;verticalAlign=top;verticalLabelPosition=bottom;labelBackgroundColor=#ffffff;imageAspect=0;aspect=fixed;image=https://cdn0.iconfinder.com/data/icons/google-material-design-3-0/48/ic_shopping_basket_48px-128.png" vertex="1" parent="1">
          <mxGeometry x="305" y="130" width="20" height="20" as="geometry" />
        </mxCell>
        <mxCell id="4RtlH1HeTIn5vclw-f7M-46" value="&lt;font style=&quot;font-size: 8px; color: rgb(179, 179, 179);&quot;&gt;HTTPS&lt;/font&gt;" style="text;html=1;align=center;verticalAlign=middle;whiteSpace=wrap;rounded=0;" vertex="1" parent="1">
          <mxGeometry x="510" y="645" width="45" height="30" as="geometry" />
        </mxCell>
        <mxCell id="4RtlH1HeTIn5vclw-f7M-49" value="&lt;font style=&quot;font-size: 8px; color: rgb(179, 179, 179);&quot;&gt;HTTPS&lt;/font&gt;" style="text;html=1;align=center;verticalAlign=middle;whiteSpace=wrap;rounded=0;" vertex="1" parent="1">
          <mxGeometry x="290" y="643" width="45" height="30" as="geometry" />
        </mxCell>
        <mxCell id="4RtlH1HeTIn5vclw-f7M-50" value="&lt;font style=&quot;font-size: 8px; color: rgb(179, 179, 179);&quot;&gt;HTTPS&lt;/font&gt;" style="text;html=1;align=center;verticalAlign=middle;whiteSpace=wrap;rounded=0;" vertex="1" parent="1">
          <mxGeometry x="292.5" y="433" width="45" height="30" as="geometry" />
        </mxCell>
        <mxCell id="4RtlH1HeTIn5vclw-f7M-53" value="&lt;font style=&quot;font-size: 8px; color: rgb(179, 179, 179);&quot;&gt;HTTPS&lt;/font&gt;" style="text;html=1;align=center;verticalAlign=middle;whiteSpace=wrap;rounded=0;" vertex="1" parent="1">
          <mxGeometry x="510" y="433" width="45" height="30" as="geometry" />
        </mxCell>
        <mxCell id="4RtlH1HeTIn5vclw-f7M-57" value="Send" style="rounded=1;html=1;shadow=0;dashed=0;whiteSpace=wrap;fontSize=10;fillColor=#E6E6E6;align=center;strokeColor=#B3B3B3;fontColor=#333333;" vertex="1" parent="1">
          <mxGeometry x="188.5" y="405" width="44.5" height="16.88" as="geometry" />
        </mxCell>
        <mxCell id="4RtlH1HeTIn5vclw-f7M-20" style="edgeStyle=orthogonalEdgeStyle;rounded=0;orthogonalLoop=1;jettySize=auto;html=1;exitX=0.75;exitY=0;exitDx=0;exitDy=0;entryX=0;entryY=0.75;entryDx=0;entryDy=0;" edge="1" parent="1" source="4RtlH1HeTIn5vclw-f7M-57" target="4RtlH1HeTIn5vclw-f7M-5">
          <mxGeometry relative="1" as="geometry" />
        </mxCell>
        <mxCell id="4RtlH1HeTIn5vclw-f7M-61" style="edgeStyle=orthogonalEdgeStyle;rounded=0;orthogonalLoop=1;jettySize=auto;html=1;entryX=0;entryY=0.5;entryDx=0;entryDy=0;startArrow=classic;startFill=1;dashed=1;" edge="1" parent="1" source="4RtlH1HeTIn5vclw-f7M-58" target="4RtlH1HeTIn5vclw-f7M-5">
          <mxGeometry relative="1" as="geometry">
            <Array as="points">
              <mxPoint x="140" y="475" />
              <mxPoint x="140" y="190" />
            </Array>
          </mxGeometry>
        </mxCell>
        <mxCell id="4RtlH1HeTIn5vclw-f7M-58" value="" style="sketch=0;pointerEvents=1;shadow=0;dashed=0;html=1;strokeColor=none;fillColor=#434445;aspect=fixed;labelPosition=center;verticalLabelPosition=bottom;verticalAlign=top;align=center;outlineConnect=0;shape=mxgraph.vvd.web_browser;" vertex="1" parent="1">
          <mxGeometry x="163" y="463" width="34" height="24.14" as="geometry" />
        </mxCell>
        <mxCell id="4RtlH1HeTIn5vclw-f7M-59" value="&lt;font style=&quot;color: rgb(179, 179, 179); font-size: 16px;&quot;&gt;&lt;b style=&quot;&quot;&gt;...&lt;/b&gt;&lt;/font&gt;" style="text;html=1;align=center;verticalAlign=middle;whiteSpace=wrap;rounded=0;" vertex="1" parent="1">
          <mxGeometry x="391" y="530" width="45" height="30" as="geometry" />
        </mxCell>
        <mxCell id="4RtlH1HeTIn5vclw-f7M-63" value="&lt;font style=&quot;font-size: 10px;&quot;&gt;Baskets&lt;/font&gt;" style="shape=cylinder3;whiteSpace=wrap;html=1;boundedLbl=1;backgroundOutline=1;size=15;aspect=fixed;" vertex="1" parent="1">
          <mxGeometry x="490" y="245.96" width="48" height="64.04" as="geometry" />
        </mxCell>
        <mxCell id="4RtlH1HeTIn5vclw-f7M-64" style="edgeStyle=orthogonalEdgeStyle;rounded=0;orthogonalLoop=1;jettySize=auto;html=1;entryX=0;entryY=0.5;entryDx=0;entryDy=0;entryPerimeter=0;exitX=0.5;exitY=1;exitDx=0;exitDy=0;startArrow=classic;startFill=1;" edge="1" parent="1" source="4RtlH1HeTIn5vclw-f7M-5" target="4RtlH1HeTIn5vclw-f7M-63">
          <mxGeometry relative="1" as="geometry" />
        </mxCell>
      </root>
    </mxGraphModel>
  </diagram>
</mxfile>
